<svg width="24" height="24" viewBox="0 0 24 24" xmlns="http://www.w3.org/2000/svg">
    <g fill="none" fill-rule="evenodd">
        <path d="M0 0h24v24H0z"/>
        <path d="M0 0h24v24H0z"/>
        <path d="M12 5c3.675 0 7.135 2.14 10.15 5.319 1.133 1.196 1.133 3.166 0 4.362C19.134 17.86 15.674 20 12 20c-3.675 0-7.135-2.14-10.15-5.319-1.133-1.196-1.133-3.166 0-4.362C4.866 7.14 8.326 5 12 5zm0 1.475c-3.186 0-6.34 1.952-9.105 4.868-.593.625-.593 1.69 0 2.314 2.766 2.916 5.92 4.868 9.106 4.868 3.185 0 6.338-1.952 9.104-4.868.593-.625.593-1.69 0-2.314-2.766-2.916-5.92-4.868-9.104-4.868zm0 2.214c2.07 0 3.747 1.706 3.747 3.811S14.07 16.311 12 16.311c-2.07 0-3.747-1.706-3.747-3.811S9.93 8.689 12 8.689zm0 1.475c-1.268 0-2.297 1.046-2.297 2.336 0 1.29 1.029 2.336 2.297 2.336 1.268 0 2.297-1.046 2.297-2.336 0-1.29-1.029-2.336-2.297-2.336z" fill="#FB6C48" fill-rule="nonzero"/>
        <path d="M4.909 4a1.4 1.4 0 0 0-.996.413 1.399 1.399 0 0 0-.413.996c0 .376.147.73.413.996l13.871 13.87c.267.267.62.414.997.414a1.409 1.409 0 0 0 .995-2.405L5.905 4.413A1.4 1.4 0 0 0 4.909 4" fill="#FFF"/>
        <path d="M4.909 4.75c.168 0 .337.064.466.193l13.871 13.872a.658.658 0 0 1-.931.93L4.443 5.876a.66.66 0 0 1 .466-1.125" fill="#FB6C48"/>
    </g>
</svg>
