<svg width="25" height="24" viewBox="0 0 25 24" xmlns="http://www.w3.org/2000/svg">
    <g fill="none" fill-rule="evenodd">
        <path d="M.5 0h24v24H.5z"/>
        <path d="M14.092 19.397a1.797 1.797 0 0 1-1.601.912h-.015a1.8 1.8 0 0 1-1.588-.913l-1.478-2.49c-.255-.43-.507-.863-.763-1.294C4.895 16.251 2.5 17.76 2.5 19.15 2.5 20.97 6.606 23 12.5 23c5.893 0 10-2.03 10-3.851 0-1.393-2.405-2.904-6.167-3.54-.301.508-.598 1.016-.9 1.523l-1.341 2.265z" fill="#888"/>
        <path d="M12.496 4.97c1.526-.002 2.768 1.25 2.765 2.786-.002 1.527-1.241 2.774-2.757 2.776-1.526 0-2.768-1.252-2.766-2.788.002-1.527 1.241-2.773 2.758-2.774m-2.024 11.297 1.478 2.492a.564.564 0 0 0 .534.304h.007c.251 0 .412-.092.54-.304l1.341-2.266c1.195-2.016 2.39-4.033 3.574-6.054.737-1.26.938-2.568.596-3.888-.581-2.253-2.017-3.673-4.39-4.341-.253-.072-.53-.11-.822-.152-.13-.02-.26-.037-.388-.059h-.892a1.544 1.544 0 0 1-.182.03 6.411 6.411 0 0 0-1.885.454c-1.63.664-2.87 1.95-3.404 3.526-.502 1.485-.34 3.058.457 4.43 1.131 1.95 2.284 3.889 3.436 5.828" fill="#6F6F6F"/>
    </g>
</svg>
