<svg width="25" height="26" viewBox="0 0 25 26" xmlns="http://www.w3.org/2000/svg">
    <g transform="translate(0 1.071)" fill="none" fill-rule="evenodd">
        <path d="M0 0h24v24H0z"/>
        <path d="M14.084 20.03H9.91c.191.807 1.147 1.478 2.09 1.478.944-.001 1.903-.677 2.084-1.478M12 1a1.106 1.106 0 0 1 1.107 1.19c.26.042.543.107.84.202 2.6.825 4.791 3.43 5.001 6.028.09 1.112.044 2.235.047 3.354.006 1.612.497 3.054 1.528 4.3.281.34.616.637.933.947.538.529.7 1.305.38 1.971-.318.663-.861 1.015-1.6 1.02-1.43.011-2.859.004-4.288.004h-.268c-.024.09-.043.17-.068.25-.483 1.496-1.492 2.4-3.05 2.69-.043.008-.085.03-.127.044h-.844c-.174-.039-.35-.069-.52-.118-1.397-.397-2.3-1.293-2.7-2.68-.045-.155-.107-.189-.253-.189-1.445.004-2.89.007-4.336.001-.956-.002-1.688-.66-1.774-1.605-.053-.579.16-1.071.6-1.452a6.867 6.867 0 0 0 1.65-2.067 6.721 6.721 0 0 0 .739-3.142c-.003-1.064-.047-2.133.038-3.192.092-1.152.408-2.168.934-3.049a7.087 7.087 0 0 1 2.723-2.562 7.204 7.204 0 0 1 2.204-.747L10.89 2.1c0-.608.497-1.1 1.111-1.1zm-.984 2.694C8.61 4.096 6.678 6.19 6.53 8.615c-.064 1.045-.033 2.097-.036 3.145-.008 2.34-.844 4.33-2.519 5.971-.127.126-.275.233-.391.368-.052.06-.086.183-.058.247.032.076.134.134.218.17.059.027.138.008.21.008H20.05c.07 0 .142.006.21-.004.22-.032.303-.245.163-.415-.04-.048-.09-.087-.136-.129-1.842-1.652-2.766-3.715-2.79-6.178-.008-.893.011-1.787-.006-2.68a6.007 6.007 0 0 0-.122-1.178c-.65-2.929-3.377-4.744-6.354-4.246z" fill="#1A1A1A"/>
        <circle stroke="#FFF" stroke-width="2" fill="#FF8861" cx="19" cy="5" r="5"/>
    </g>
</svg>
