<svg width="25" height="24" viewBox="0 0 25 24" xmlns="http://www.w3.org/2000/svg">
    <g fill="none" fill-rule="evenodd">
        <path d="M9.827 20.753c-3.397 0-6.163-2.753-6.163-6.138V6.138c0-.384.04-.76.11-1.124C1.85 5.876.5 7.8.5 10.027v8.477C.5 21.527 2.984 24 6.018 24h8.512c2.284 0 4.255-1.4 5.09-3.383a6.218 6.218 0 0 1-1.282.136H9.827z" fill="#888"/>
        <path d="M18.337 1.283c2.689 0 4.875 2.178 4.875 4.856v8.476c0 2.677-2.186 4.856-4.875 4.856h-8.51c-2.688 0-4.875-2.18-4.875-4.856V6.139c0-2.678 2.187-4.856 4.875-4.856h8.51z" fill="#6F6F6F"/>
        <path d="M23.213 14.615c0 2.676-2.187 4.855-4.876 4.855h-8.51c-2.688 0-4.875-2.179-4.875-4.855V6.138c0-2.677 2.187-4.855 4.875-4.855h8.51c2.689 0 4.876 2.178 4.876 4.855v8.477zM18.337 0h-8.51a6.162 6.162 0 0 0-6.163 6.138v8.477c0 3.384 2.766 6.138 6.163 6.138h8.51c.44 0 .87-.048 1.284-.135 2.784-.59 4.88-3.057 4.88-6.003V6.138C24.5 2.753 21.736 0 18.337 0z" fill="#FFF"/>
        <path d="M12.115 10.086H9.649a.75.75 0 0 0-.752.75.75.75 0 0 0 .752.748h2.466a.75.75 0 0 0 .751-.749.75.75 0 0 0-.751-.749M12.115 6.306H9.649a.75.75 0 0 0-.752.748.75.75 0 0 0 .752.75h2.466a.75.75 0 0 0 .751-.75.75.75 0 0 0-.751-.748M18.691 14.056H9.474a.75.75 0 0 0-.752.748.75.75 0 0 0 .752.75h9.217a.75.75 0 0 0 .752-.75.75.75 0 0 0-.752-.748M16.31 5.21a1.822 1.822 0 0 0-1.827 1.818c0 1.005.818 1.82 1.826 1.82h1.218a.607.607 0 1 1 0 1.212h-2.435a.607.607 0 1 0 0 1.213h1.217v.606c0 .335.273.607.609.607.336 0 .609-.272.609-.607v-.606c1.01 0 1.826-.814 1.826-1.82a1.822 1.822 0 0 0-1.826-1.818h-1.218a.608.608 0 1 1 0-1.213h2.436a.607.607 0 1 0 0-1.212h-1.218v-.606a.608.608 0 0 0-1.218 0v.606z" fill="#FFF"/>
    </g>
</svg>
