<svg width="25" height="24" viewBox="0 0 25 24" xmlns="http://www.w3.org/2000/svg" xmlns:xlink="http://www.w3.org/1999/xlink">
    <defs>
        <path id="q9avo9432a" d="M0 0h24v24H0z"/>
    </defs>
    <g transform="translate(.5)" fill="none" fill-rule="evenodd">
        <mask id="x3y7js0trb" fill="#fff">
            <use xlink:href="#q9avo9432a"/>
        </mask>
        <path d="M23.214 10.889a5.07 5.07 0 0 0-1.831-3.89l-6.027-5.04a5.296 5.296 0 0 0-6.77 0l-6.028 5.04a5.073 5.073 0 0 0-1.831 3.89v7.146c0 2.893 2.393 5.238 5.343 5.238h11.8c2.952 0 5.344-2.345 5.344-5.238v-7.146z" fill="#FF8861" mask="url(#x3y7js0trb)"/>
        <g mask="url(#x3y7js0trb)">
            <path d="M11.97 1.455a4.544 4.544 0 0 0-2.919 1.061l-6.027 5.04a4.34 4.34 0 0 0-1.57 3.333v7.146c0 2.488 2.07 4.512 4.616 4.512h11.8c2.546 0 4.617-2.024 4.617-4.512v-7.146a4.34 4.34 0 0 0-1.57-3.332l-6.028-5.041a4.544 4.544 0 0 0-2.919-1.061M17.87 24H6.07C2.723 24 0 21.324 0 18.035v-7.146c0-1.715.762-3.336 2.09-4.448l6.028-5.04a5.996 5.996 0 0 1 7.705 0l6.027 5.04a5.792 5.792 0 0 1 2.09 4.448v7.146c0 3.29-2.723 5.965-6.07 5.965" fill="#FFF"/>
            <path d="M22.566 4.857a3 3 0 1 1-6 0 3 3 0 0 1 6 0" stroke="#FFF" fill="#FF8861"/>
        </g>
        <path d="M14.304 18.339H9.637a.849.849 0 0 1 0-1.697h4.667a.849.849 0 0 1 0 1.697" fill="#FFF" mask="url(#x3y7js0trb)"/>
    </g>
</svg>
