<svg width="24" height="25" viewBox="0 0 24 25" xmlns="http://www.w3.org/2000/svg">
    <g fill="none" fill-rule="evenodd">
        <path d="M0 .071h24v24H0z"/>
        <path d="M14.084 20.101H9.91c.191.808 1.147 1.478 2.09 1.478.944 0 1.903-.676 2.084-1.478M12 1.071a1.106 1.106 0 0 1 1.107 1.19c.26.043.543.108.84.202 2.6.826 4.791 3.43 5.001 6.028.09 1.113.044 2.236.047 3.354.006 1.613.497 3.054 1.528 4.3.281.34.616.637.933.947.538.529.7 1.306.38 1.972-.318.662-.861 1.015-1.6 1.02-1.43.01-2.859.003-4.288.003h-.268c-.024.09-.043.171-.068.251-.483 1.495-1.492 2.4-3.05 2.69-.043.007-.085.029-.127.043h-.844c-.174-.038-.35-.069-.52-.118-1.397-.396-2.3-1.293-2.7-2.68-.045-.155-.107-.189-.253-.189-1.445.005-2.89.007-4.336.002-.956-.003-1.688-.66-1.774-1.606-.053-.578.16-1.071.6-1.452a6.867 6.867 0 0 0 1.65-2.066 6.721 6.721 0 0 0 .739-3.143c-.003-1.064-.047-2.133.038-3.191.092-1.152.408-2.168.934-3.05a7.087 7.087 0 0 1 2.723-2.562 7.204 7.204 0 0 1 2.204-.746l-.007-.099c0-.607.497-1.1 1.111-1.1zm-.984 2.694C8.61 4.167 6.678 6.261 6.53 8.686c-.064 1.045-.033 2.097-.036 3.145-.008 2.34-.844 4.33-2.519 5.972-.127.125-.275.232-.391.367-.052.06-.086.183-.058.247.032.076.134.134.218.171.059.027.138.007.21.007H20.05c.07 0 .142.007.21-.004.22-.032.303-.245.163-.415-.04-.048-.09-.086-.136-.128-1.842-1.652-2.766-3.715-2.79-6.179-.008-.893.011-1.787-.006-2.68a6.007 6.007 0 0 0-.122-1.178c-.65-2.928-3.377-4.743-6.354-4.246z" fill="#1A1A1A"/>
    </g>
</svg>
